<svg width="27" height="31" viewBox="0 0 27 31" fill="none" xmlns="http://www.w3.org/2000/svg">
<g clip-path="url(#clip0_36_5414)">
<path d="M25.261 0.666504H1.74922C0.817671 0.666504 0.0625 1.44347 0.0625 2.4019V28.9311C0.0625 29.8895 0.817671 30.6665 1.74922 30.6665H25.261C26.1926 30.6665 26.9477 29.8895 26.9477 28.9311V2.4019C26.9477 1.44347 26.1926 0.666504 25.261 0.666504Z" fill="#0D361E"/>
<path d="M21.4763 15.5129C21.2749 14.7988 20.8908 14.133 20.277 13.7185C19.2343 13.0162 17.6342 13.0301 16.6176 13.7743C16.5466 13.8269 16.4798 13.8817 16.4162 13.9397C16.4141 13.9408 16.412 13.9397 16.412 13.9376V9.66243C16.412 9.62592 16.3828 9.59692 16.3483 9.59692H13.3465C13.311 9.59692 13.2817 9.62699 13.2817 9.6635V10.9275C13.9404 10.9275 14.4748 11.4773 14.4748 12.1549C14.4748 12.1549 14.4768 12.156 14.4768 12.1571V21.7404C14.4768 21.7404 14.4779 21.7425 14.4789 21.7425H16.4089C16.4089 21.7425 16.4109 21.7415 16.4109 21.7404V21.2743C16.4109 21.2743 16.413 21.2711 16.4151 21.2722C16.5091 21.3581 16.6113 21.4343 16.722 21.5031C16.9902 21.6695 17.2919 21.7726 17.5998 21.8252C19.1633 22.0883 20.7185 21.1197 21.3156 19.6291C21.5797 18.9698 21.6632 18.2632 21.6819 17.5565C21.684 17.4642 21.6861 17.3718 21.6861 17.2795C21.6903 16.6856 21.636 16.0853 21.4753 15.5129H21.4763ZM19.6341 17.5544C19.6132 18.3244 19.5401 19.06 18.9181 19.6646C18.8241 19.7559 18.7208 19.8385 18.6091 19.9051C17.4088 20.6171 16.4245 19.3285 16.3807 19.2694C16.3807 19.2694 16.3807 19.2694 16.3807 19.2683V15.9683V15.9672C16.8003 15.3046 17.4756 14.9073 18.1091 14.9943C18.5914 15.0598 19.0057 15.397 19.2709 15.8158C19.6069 16.3474 19.6508 16.9337 19.6341 17.5555V17.5544Z" fill="#C2A76D"/>
<path d="M5.53387 15.8201C5.73532 16.5342 6.11942 17.2 6.73315 17.6145C7.77587 18.3168 9.37596 18.3029 10.3926 17.5587C10.4636 17.5061 10.5304 17.4513 10.594 17.3933C10.5961 17.3922 10.5982 17.3933 10.5982 17.3955V21.6706C10.5982 21.7071 10.6274 21.7361 10.6619 21.7361H13.6637C13.6992 21.7361 13.7285 21.706 13.7285 21.6695V20.4055C13.0698 20.4055 12.5354 19.8557 12.5354 19.1781C12.5354 19.1781 12.5333 19.177 12.5333 19.1759V9.59261C12.5333 9.59261 12.5323 9.59047 12.5313 9.59047H10.6013C10.6013 9.59047 10.5993 9.59154 10.5993 9.59261V10.0587C10.5993 10.0587 10.5972 10.0619 10.5951 10.0608C10.5011 9.97492 10.3988 9.89867 10.2882 9.82994C10.02 9.66349 9.71832 9.5604 9.41041 9.50778C7.84685 9.24468 6.29164 10.2133 5.69461 11.7039C5.43054 12.3632 5.34704 13.0698 5.32825 13.7765C5.32616 13.8688 5.32407 13.9612 5.32407 14.0535C5.3199 14.6474 5.37417 15.2477 5.53491 15.8201H5.53387ZM7.37611 13.7786C7.39699 13.0086 7.47005 12.273 8.09213 11.6684C8.18607 11.5772 8.2894 11.4945 8.40109 11.4279C9.60141 10.7159 10.5857 12.0046 10.6295 12.0636C10.6295 12.0636 10.6295 12.0636 10.6295 12.0647V15.3647V15.3658C10.2099 16.0284 9.53461 16.4257 8.90105 16.3387C8.41883 16.2732 8.00446 15.936 7.73934 15.5172C7.40325 14.9857 7.35941 14.3993 7.37611 13.7775V13.7786Z" fill="#C2A76D"/>
<path d="M24.7736 28.1622H2.2356V3.17081H24.7736V28.1622ZM3.02677 27.3482H23.9824V3.98481H3.02677V27.3482Z" fill="#C2A76D"/>
</g>
<defs>
<clipPath id="clip0_36_5414">
<rect width="26.8852" height="30" fill="white" transform="translate(0.0625 0.666504)"/>
</clipPath>
</defs>
</svg>
